<svg width="309" height="287" viewBox="0 0 309 287" fill="none" xmlns="http://www.w3.org/2000/svg">
<path d="M155.184 265.069L219.901 242.096M11.6094 103.914L66.4116 236.898M152.622 10.9169L82.43 47.284M11.6094 103.914L82.43 47.284M211.385 32.3279L152.622 10.9169M243.246 64.7813L211.385 32.3279M287.55 79.0565L243.246 64.7813M268.349 136.659L219.901 242.096M289.585 212.623L219.901 242.096M82.43 47.284L211.385 32.3279M81.6858 181.541L66.4116 236.898M11.6094 103.914L81.6858 181.541M155.184 265.069L81.6858 181.541M83.2004 109.597L155.184 96.3397M211.385 32.3279L169.419 164.227M268.349 136.659L243.246 64.7813M169.419 164.227L155.184 96.3397L211.385 32.3279M219.901 242.096L169.419 164.227" stroke="black" stroke-width="0.5" stroke-linecap="round" stroke-linejoin="round"/>
<path d="M169.328 163.658L155.187 265.069L66.4141 236.898" stroke="black" stroke-width="0.5" stroke-linecap="round" stroke-linejoin="round"/>
<path d="M155.184 106.301C161.046 106.301 165.799 101.841 165.799 96.3397C165.799 90.8381 161.046 86.3783 155.184 86.3783C149.322 86.3783 144.57 90.8381 144.57 96.3397C144.57 101.841 149.322 106.301 155.184 106.301Z" fill="black" stroke="#020064" stroke-width="0.24" stroke-linecap="round" stroke-linejoin="round"/>
<path d="M169.418 164.227L243.246 64.7812L169.418 164.227Z" fill="black"/>
<path d="M169.418 164.227L243.246 64.7812" stroke="black" stroke-width="0.5" stroke-linecap="round" stroke-linejoin="round"/>
<path d="M243.247 74.7427C249.109 74.7427 253.861 70.2828 253.861 64.7813C253.861 59.2798 249.109 54.8199 243.247 54.8199C237.385 54.8199 232.633 59.2798 232.633 64.7813C232.633 70.2828 237.385 74.7427 243.247 74.7427Z" fill="black" stroke="#020064" stroke-width="0.24" stroke-linecap="round" stroke-linejoin="round"/>
<path d="M287.552 89.0179C293.414 89.0179 298.166 84.558 298.166 79.0565C298.166 73.555 293.414 69.0951 287.552 69.0951C281.69 69.0951 276.938 73.555 276.938 79.0565C276.938 84.558 281.69 89.0179 287.552 89.0179Z" fill="black" stroke="#020064" stroke-width="0.24" stroke-linecap="round" stroke-linejoin="round"/>
<path d="M289.587 222.584C295.449 222.584 300.201 218.124 300.201 212.623C300.201 207.121 295.449 202.661 289.587 202.661C283.725 202.661 278.973 207.121 278.973 212.623C278.973 218.124 283.725 222.584 289.587 222.584Z" fill="black" stroke="#020064" stroke-width="0.24" stroke-linecap="round" stroke-linejoin="round"/>
<path d="M211.388 42.2892C217.25 42.2892 222.002 37.8293 222.002 32.3278C222.002 26.8263 217.25 22.3665 211.388 22.3665C205.526 22.3665 200.773 26.8263 200.773 32.3278C200.773 37.8293 205.526 42.2892 211.388 42.2892Z" fill="black" stroke="#020064" stroke-width="0.24" stroke-linecap="round" stroke-linejoin="round"/>
<path d="M82.3915 57.2453C88.2535 57.2453 93.0056 52.7854 93.0056 47.2839C93.0056 41.7824 88.2535 37.3225 82.3915 37.3225C76.5295 37.3225 71.7773 41.7824 71.7773 47.2839C71.7773 52.7854 76.5295 57.2453 82.3915 57.2453Z" fill="black" stroke="#020064" stroke-width="0.24" stroke-linecap="round" stroke-linejoin="round"/>
<path d="M11.6102 114.29C17.4722 114.29 22.2243 109.83 22.2243 104.328C22.2243 98.8269 17.4722 94.3671 11.6102 94.3671C5.7482 94.3671 0.996094 98.8269 0.996094 104.328C0.996094 109.83 5.7482 114.29 11.6102 114.29Z" fill="black" stroke="#020064" stroke-width="0.24" stroke-linecap="round" stroke-linejoin="round"/>
<path d="M152.622 20.8782C158.484 20.8782 163.236 16.4183 163.236 10.9168C163.236 5.41531 158.484 0.955444 152.622 0.955444C146.76 0.955444 142.008 5.41531 142.008 10.9168C142.008 16.4183 146.76 20.8782 152.622 20.8782Z" fill="black" stroke="#020064" stroke-width="0.24" stroke-linecap="round" stroke-linejoin="round"/>
<path d="M155.184 274.588C161.046 274.588 165.799 270.128 165.799 264.627C165.799 259.125 161.046 254.665 155.184 254.665C149.322 254.665 144.57 259.125 144.57 264.627C144.57 270.128 149.322 274.588 155.184 274.588Z" fill="black" stroke="#020064" stroke-width="0.24" stroke-linecap="round" stroke-linejoin="round"/>
<path d="M66.411 246.859C72.273 246.859 77.0251 242.399 77.0251 236.898C77.0251 231.396 72.273 226.936 66.411 226.936C60.549 226.936 55.7969 231.396 55.7969 236.898C55.7969 242.399 60.549 246.859 66.411 246.859Z" fill="black" stroke="#020064" stroke-width="0.24" stroke-linecap="round" stroke-linejoin="round"/>
<path d="M81.6883 191.503C87.5504 191.503 92.3025 187.043 92.3025 181.541C92.3025 176.04 87.5504 171.58 81.6883 171.58C75.8263 171.58 71.0742 176.04 71.0742 181.541C71.0742 187.043 75.8263 191.503 81.6883 191.503Z" fill="black" stroke="#020064" stroke-width="0.24" stroke-linecap="round" stroke-linejoin="round"/>
<path d="M83.2029 128.21C98.0563 128.21 110.097 116.91 110.097 102.97C110.097 89.0301 98.0563 77.7296 83.2029 77.7296C68.3496 77.7296 56.3086 89.0301 56.3086 102.97C56.3086 116.91 68.3496 128.21 83.2029 128.21Z" fill="black" stroke="#020064" stroke-width="0.24" stroke-linecap="round" stroke-linejoin="round"/>
<path d="M101.183 121.738C96.2469 125.899 89.8459 128.2 83.2109 128.2C76.5758 128.2 70.1748 125.899 65.2383 121.738C66.723 118.42 69.2187 115.587 72.4124 113.595C75.6061 111.602 79.3555 110.54 83.1903 110.54C87.0251 110.54 90.7745 111.602 93.9682 113.595C97.1619 115.587 99.6576 118.42 101.142 121.738" fill="#7A7881"/>
<path d="M101.183 121.738C96.2469 125.899 89.8459 128.2 83.2109 128.2C76.5758 128.2 70.1748 125.899 65.2383 121.738C66.723 118.42 69.2187 115.587 72.4124 113.595C75.6061 111.602 79.3555 110.54 83.1903 110.54C87.0251 110.54 90.7745 111.602 93.9682 113.595C97.1619 115.587 99.6576 118.42 101.142 121.738" stroke="#5A5A5A" stroke-width="0.24" stroke-linecap="round" stroke-linejoin="round"/>
<path d="M169.423 201.317C191.25 201.317 208.944 184.711 208.944 164.227C208.944 143.742 191.25 127.136 169.423 127.136C147.596 127.136 129.902 143.742 129.902 164.227C129.902 184.711 147.596 201.317 169.423 201.317Z" fill="black" stroke="#020064" stroke-width="0.24" stroke-linecap="round" stroke-linejoin="round"/>
<path d="M156.707 163.367C156.707 166.532 158.047 169.567 160.431 171.805C162.816 174.043 166.051 175.301 169.423 175.301C172.796 175.301 176.03 174.043 178.415 171.805C180.799 169.567 182.139 166.532 182.139 163.367V157.4C182.139 154.235 180.799 151.199 178.415 148.961C176.03 146.723 172.796 145.466 169.423 145.466C166.051 145.466 162.816 146.723 160.431 148.961C158.047 151.199 156.707 154.235 156.707 157.4V163.367Z" fill="white" stroke="#020064" stroke-width="0.24" stroke-linecap="round" stroke-linejoin="round"/>
<path d="M195.839 191.812C188.586 197.928 179.179 201.311 169.428 201.311C159.676 201.311 150.269 197.928 143.016 191.812C145.186 186.923 148.849 182.746 153.544 179.806C158.238 176.866 163.754 175.295 169.398 175.291C175.041 175.286 180.56 176.848 185.26 179.781C189.959 182.713 193.63 186.884 195.809 191.77" fill="#7A7881"/>
<path d="M195.839 191.812C188.586 197.928 179.179 201.311 169.428 201.311C159.676 201.311 150.269 197.928 143.016 191.812C145.186 186.923 148.849 182.746 153.544 179.806C158.238 176.866 163.754 175.295 169.398 175.291C175.041 175.286 180.56 176.848 185.26 179.781C189.959 182.713 193.63 186.884 195.809 191.77" stroke="#5A5A5A" stroke-width="0.24" stroke-linecap="round" stroke-linejoin="round"/>
<path d="M156.812 155.859C157.143 153.449 158.251 151.191 159.986 149.387C161.721 147.583 164.002 146.32 166.523 145.765C169.044 145.211 171.685 145.392 174.094 146.284C176.502 147.176 178.563 148.737 180.001 150.759C176.99 153.5 173.242 155.422 169.158 156.32C165.075 157.218 160.807 157.059 156.812 155.859Z" fill="#888888" stroke="#2926C0" stroke-width="0.24" stroke-linecap="round" stroke-linejoin="round"/>
<path d="M268.351 160.081C283.205 160.081 295.246 148.781 295.246 134.841C295.246 120.901 283.205 109.6 268.351 109.6C253.498 109.6 241.457 120.901 241.457 134.841C241.457 148.781 253.498 160.081 268.351 160.081Z" fill="black" stroke="#020064" stroke-width="0.24" stroke-linecap="round" stroke-linejoin="round"/>
<path d="M259.695 134.255C259.695 136.409 260.607 138.475 262.23 139.998C263.853 141.521 266.054 142.377 268.35 142.377C270.645 142.377 272.846 141.521 274.469 139.998C276.092 138.475 277.004 136.409 277.004 134.255V130.194C277.004 128.04 276.092 125.974 274.469 124.45C272.846 122.927 270.645 122.072 268.35 122.072C266.054 122.072 263.853 122.927 262.23 124.45C260.607 125.974 259.695 128.04 259.695 130.194V134.255Z" fill="white" stroke="#020064" stroke-width="0.24" stroke-linecap="round" stroke-linejoin="round"/>
<path d="M286.328 153.612C281.391 157.775 274.99 160.077 268.353 160.077C261.717 160.077 255.315 157.775 250.379 153.612C251.857 150.285 254.35 147.443 257.545 145.443C260.74 143.442 264.493 142.373 268.334 142.37C272.175 142.367 275.93 143.431 279.129 145.426C282.327 147.421 284.825 150.26 286.309 153.584" fill="#7A7881"/>
<path d="M286.328 153.612C281.391 157.775 274.99 160.077 268.353 160.077C261.717 160.077 255.315 157.775 250.379 153.612C251.857 150.285 254.35 147.443 257.545 145.443C260.74 143.442 264.493 142.373 268.334 142.37C272.175 142.367 275.93 143.431 279.129 145.426C282.327 147.421 284.825 150.26 286.309 153.584" stroke="#5A5A5A" stroke-width="0.24" stroke-linecap="round" stroke-linejoin="round"/>
<path d="M259.766 129.144C259.993 127.506 260.747 125.972 261.927 124.747C263.108 123.522 264.658 122.663 266.371 122.286C268.085 121.909 269.88 122.031 271.518 122.636C273.155 123.241 274.558 124.301 275.537 125.673C273.489 127.536 270.94 128.843 268.163 129.454C265.385 130.065 262.483 129.958 259.766 129.144Z" fill="#888888" stroke="#2926C0" stroke-width="0.24" stroke-linecap="round" stroke-linejoin="round"/>
<path d="M219.902 267.249C234.755 267.249 246.796 255.948 246.796 242.008C246.796 228.068 234.755 216.768 219.902 216.768C205.049 216.768 193.008 228.068 193.008 242.008C193.008 255.948 205.049 267.249 219.902 267.249Z" fill="black" stroke="#020064" stroke-width="0.24" stroke-linecap="round" stroke-linejoin="round"/>
<path d="M211.246 241.429C211.246 243.583 212.158 245.649 213.781 247.172C215.404 248.695 217.605 249.551 219.9 249.551C222.196 249.551 224.397 248.695 226.02 247.172C227.643 245.649 228.555 243.583 228.555 241.429V237.364C228.555 235.21 227.643 233.144 226.02 231.621C224.397 230.098 222.196 229.242 219.9 229.242C217.605 229.242 215.404 230.098 213.781 231.621C212.158 233.144 211.246 235.21 211.246 237.364V241.429Z" fill="white" stroke="#020064" stroke-width="0.24" stroke-linecap="round" stroke-linejoin="round"/>
<path d="M237.879 260.783C232.941 264.943 226.54 267.245 219.904 267.245C213.269 267.245 206.867 264.943 201.93 260.783C203.407 257.456 205.9 254.614 209.095 252.613C212.289 250.612 216.043 249.543 219.884 249.54C223.724 249.536 227.48 250.599 230.679 252.594C233.877 254.589 236.376 257.427 237.86 260.752" fill="#7A7881"/>
<path d="M237.879 260.783C232.941 264.943 226.54 267.245 219.904 267.245C213.269 267.245 206.867 264.943 201.93 260.783C203.407 257.456 205.9 254.614 209.095 252.613C212.289 250.612 216.043 249.543 219.884 249.54C223.724 249.536 227.48 250.599 230.679 252.594C233.877 254.589 236.376 257.427 237.86 260.752" stroke="#5A5A5A" stroke-width="0.24" stroke-linecap="round" stroke-linejoin="round"/>
<path d="M211.32 236.315C211.548 234.677 212.302 233.143 213.482 231.918C214.662 230.693 216.213 229.834 217.926 229.457C219.64 229.08 221.435 229.202 223.072 229.807C224.71 230.412 226.112 231.471 227.092 232.844C225.043 234.707 222.495 236.014 219.717 236.625C216.94 237.236 214.038 237.129 211.32 236.315Z" fill="#888888" stroke="#2926C0" stroke-width="0.24" stroke-linecap="round" stroke-linejoin="round"/>
<path d="M165.109 99.8743L242.613 127.491M286.895 202.984L274.702 159.372M130.671 171.545L92.0631 179.425M284.385 88.565L276.935 110.91M101.686 121.306L136.666 143.472M82.8103 77.7297L82.556 57.2418M101.114 84.1389L146.776 19.2285M56.7388 107.498L22.2148 104.753M82.8141 128.207L81.8978 171.584M279.833 208.691L205.752 178.856" stroke="black" stroke-width="0.5" stroke-linecap="round" stroke-linejoin="round"/>
<path d="M74.5487 102.384C74.5248 103.464 74.7309 104.539 75.155 105.544C75.5791 106.548 76.2126 107.464 77.0184 108.236C77.8242 109.008 78.7862 109.622 79.8478 110.04C80.9095 110.459 82.0496 110.675 83.2012 110.675C84.3529 110.675 85.4929 110.459 86.5546 110.04C87.6163 109.622 88.5782 109.008 89.3841 108.236C90.1899 107.464 90.8234 106.548 91.2475 105.544C91.6716 104.539 91.8777 103.464 91.8537 102.384V98.3228C91.8777 97.2422 91.6716 96.168 91.2475 95.1632C90.8234 94.1583 90.1899 93.2429 89.3841 92.4708C88.5782 91.6986 87.6163 91.0852 86.5546 90.6664C85.4929 90.2476 84.3529 90.0319 83.2012 90.0319C82.0496 90.0319 80.9095 90.2476 79.8478 90.6664C78.7862 91.0852 77.8242 91.6986 77.0184 92.4708C76.2126 93.2429 75.5791 94.1583 75.155 95.1632C74.7309 96.168 74.5248 97.2422 74.5487 98.3228V102.384Z" fill="white" stroke="#020064" stroke-width="0.24" stroke-linecap="round" stroke-linejoin="round"/>
<path d="M74.6211 97.2734C74.8475 95.6353 75.6009 94.101 76.7807 92.8753C77.9605 91.6496 79.5107 90.7908 81.2242 90.4135C82.9377 90.0363 84.7331 90.1586 86.3706 90.764C88.0082 91.3695 89.41 92.4293 90.3889 93.802C88.3416 95.6659 85.7936 96.9732 83.0166 97.5845C80.2397 98.1959 77.338 98.0884 74.6211 97.2734Z" fill="#888888" stroke="#2926C0" stroke-width="0.24" stroke-linecap="round" stroke-linejoin="round"/>
</svg>
