<svg width="26" height="26" viewBox="0 0 26 26" fill="none" xmlns="http://www.w3.org/2000/svg">
<path d="M12.8066 0.307129C5.90352 0.307129 0.306641 5.904 0.306641 12.8071C0.306641 19.7103 5.90352 25.3071 12.8066 25.3071C19.7098 25.3071 25.3066 19.7103 25.3066 12.8071C25.3066 5.904 19.7098 0.307129 12.8066 0.307129ZM19.54 10.2394C19.5462 10.378 19.5493 10.5155 19.5493 10.653C19.5493 14.8905 16.3254 19.7738 10.4285 19.7738C8.61706 19.7738 6.93268 19.2436 5.51497 18.3332C5.76602 18.3634 6.02122 18.3769 6.2806 18.3769C7.78372 18.3769 9.16497 17.8655 10.2608 17.004C8.85768 16.978 7.67331 16.0509 7.26602 14.778C7.46185 14.8155 7.66289 14.8353 7.86914 14.8353C8.16185 14.8353 8.44622 14.7957 8.71393 14.7228C7.24727 14.429 6.14206 13.1332 6.14206 11.58C6.14206 11.5665 6.14206 11.553 6.14206 11.5394C6.57435 11.78 7.0681 11.9238 7.59414 11.9405C6.73477 11.3665 6.1681 10.3842 6.1681 9.27275C6.1681 8.68421 6.32539 8.13317 6.60143 7.6613C8.18268 9.60088 10.5452 10.878 13.2087 11.0113C13.1546 10.7769 13.1264 10.5321 13.1264 10.2811C13.1264 8.5113 14.5618 7.07484 16.3316 7.07484C17.2535 7.07484 18.0868 7.46442 18.6712 8.08734C19.4014 7.94254 20.0879 7.67692 20.7077 7.30921C20.4681 8.05817 19.9598 8.68525 19.2973 9.08317C19.9452 9.00609 20.5629 8.83421 21.1389 8.579C20.7108 9.22275 20.1681 9.78629 19.54 10.2394Z" fill="white"/>
</svg>
