<svg width="275" height="292" viewBox="0 0 275 292" fill="none" xmlns="http://www.w3.org/2000/svg">
<path d="M214.877 150.322H252.213C256.845 163.364 274.757 160.137 274.999 146C274.756 131.861 256.843 128.638 252.213 141.678H214.877V114.542H225.437C230.235 127.375 247.915 124.01 248.145 110.004C247.887 95.7386 229.75 92.65 225.289 105.898H210.849C208.625 105.898 206.821 107.833 206.821 110.22V141.678H185.462V120.301C185.462 118.756 184.694 117.33 183.448 116.558L171.205 108.975L202.727 84.3703H252.213C256.846 97.4125 274.758 94.1856 275 80.0486C274.757 65.9099 256.844 62.6865 252.213 75.727H205.444V54.798C217.275 49.5343 214.056 30.7304 201.08 30.4936C187.704 30.7788 184.911 50.3997 197.388 55.062V77.8486L163.57 104.246L140.839 90.1665V58.3424H154.196C158.828 71.3846 176.74 68.1577 176.982 54.0207C176.739 39.882 158.826 36.6586 154.196 49.6991H140.839V24.4462C152.996 19.4763 149.987 0.259876 136.81 0C123.631 0.261028 120.627 19.4786 132.782 24.4462V49.6991H120.805C116.172 36.6569 98.2604 39.8837 98.0182 54.0207C98.2615 68.1595 116.175 71.3828 120.805 58.3424H132.782V91.021L111.43 104.246L77.6123 77.8486V55.062C90.092 50.3963 87.2932 30.7777 73.9197 30.4936C68.7113 30.4936 68.7113 39.1369 73.9197 39.1369C75.9559 39.1369 77.6123 40.914 77.6123 43.0984C77.5564 47.563 71.7916 48.572 70.4177 44.3615C68.7591 39.0649 61.122 41.8175 62.7806 47.1141C63.9026 50.6965 66.4211 53.4549 69.5557 54.7992V75.727H22.7869C18.1543 62.6848 0.242236 65.9122 0 80.0492C0.243311 94.1879 18.1564 97.4113 22.7869 84.3709H72.2734L103.795 108.975L91.5524 116.559C90.3063 117.331 89.5383 118.757 89.5383 120.301V141.679H68.179V110.221C68.179 107.834 66.3754 105.899 64.1507 105.899H49.7105C45.2472 92.6483 27.1111 95.7414 26.8555 110.005C27.0859 124.013 44.7675 127.374 49.5634 114.542H60.1229V141.678H22.7869C18.1543 128.636 0.242236 131.863 0 146C0.243311 160.139 18.1564 163.362 22.7869 150.322H60.1224V177.458H49.7105C45.2472 164.207 27.1111 167.301 26.8555 181.564C27.0859 195.572 44.7675 198.933 49.5634 186.102H64.1513C66.376 186.102 68.1796 184.167 68.1796 181.78V150.322H89.5388V174.725C89.5388 176.269 90.3069 177.695 91.553 178.467L103.796 186.05L72.274 210.655H22.7869C18.1543 197.612 0.242236 200.84 0 214.977C0.243311 229.115 18.1564 232.339 22.7869 219.298H69.5557V240.227C57.7247 245.491 60.9442 264.295 73.9197 264.532C87.2964 264.246 90.0888 244.625 77.6123 239.963V217.177L111.43 190.779L133.472 204.431V236.683H120.804C116.172 223.641 98.2599 226.867 98.0176 241.004C98.2609 255.143 116.174 258.367 120.804 245.326H133.472V267.554C121.315 272.524 124.323 291.74 137.5 292C150.679 291.739 153.684 272.521 141.528 267.554V245.326H154.196C158.828 258.368 176.74 255.141 176.982 241.004C176.739 226.866 158.826 223.642 154.196 236.683H141.528V204.431L163.57 190.779L197.388 217.177V239.963C184.909 244.628 187.706 264.247 201.08 264.532C214.057 264.294 217.273 245.489 205.444 240.227V219.298H252.213C256.846 232.34 274.758 229.114 275 214.977C274.757 200.838 256.844 197.614 252.213 210.655H202.727L171.205 186.05L183.371 178.514C187.882 175.721 183.854 168.235 179.343 171.029L137.5 196.946L97.5949 172.229V122.796L137.5 98.0792L177.405 122.796V151.788C177.405 157.376 185.462 157.376 185.462 151.788V150.322H206.821V181.78C206.821 184.167 208.625 186.102 210.849 186.102H225.437C230.235 198.935 247.915 195.57 248.145 181.564C247.888 167.298 229.751 164.21 225.29 177.458H214.878L214.877 150.322ZM263.251 142.038C265.287 142.038 266.943 143.816 266.943 146C266.77 151.243 259.73 151.242 259.558 146C259.558 143.816 261.215 142.038 263.251 142.038ZM236.395 106.043C238.431 106.043 240.088 107.82 240.088 110.004C239.914 115.247 232.875 115.246 232.703 110.004C232.703 107.82 234.359 106.043 236.395 106.043ZM263.251 76.0871C265.287 76.0871 266.943 77.8642 266.943 80.0486C266.77 85.2917 259.73 85.2905 259.558 80.0486C259.558 77.8642 261.215 76.0871 263.251 76.0871ZM201.08 39.1369C203.116 39.1369 204.773 40.914 204.773 43.0984C204.599 48.3415 197.56 48.3403 197.388 43.0984C197.388 40.914 199.044 39.1369 201.08 39.1369ZM165.233 50.0592C167.269 50.0592 168.926 51.8363 168.926 54.0207C168.752 59.2638 161.713 59.2626 161.54 54.0207C161.54 51.8363 163.197 50.0592 165.233 50.0592ZM136.81 8.64332C138.847 8.64332 140.503 10.4204 140.503 12.6048C140.329 17.8479 133.29 17.8467 133.118 12.6048C133.118 10.4204 134.774 8.64332 136.81 8.64332ZM109.767 57.9822C107.731 57.9822 106.074 56.2052 106.074 54.0207C106.248 48.7777 113.287 48.7788 113.46 54.0207C113.46 56.2052 111.803 57.9822 109.767 57.9822ZM11.7493 84.0101C9.71309 84.0101 8.05664 82.2331 8.05664 80.0486C8.23013 74.8056 15.2695 74.8067 15.4419 80.0486C15.4419 82.2331 13.7854 84.0101 11.7493 84.0101ZM38.6047 113.966C36.5686 113.966 34.9121 112.189 34.9121 110.004C35.0856 104.761 42.125 104.762 42.2974 110.004C42.2974 112.189 40.6409 113.966 38.6047 113.966ZM11.7493 149.962C9.71309 149.962 8.05664 148.184 8.05664 146C8.23013 140.757 15.2695 140.758 15.4419 146C15.4419 148.184 13.7854 149.962 11.7493 149.962ZM38.6047 185.525C36.5686 185.525 34.9121 183.748 34.9121 181.564C35.0856 176.321 42.125 176.322 42.2974 181.564C42.2974 183.748 40.6409 185.525 38.6047 185.525ZM11.7493 218.938C9.71309 218.938 8.05664 217.161 8.05664 214.977C8.23013 209.734 15.2695 209.735 15.4419 214.977C15.4419 217.161 13.7854 218.938 11.7493 218.938ZM73.9197 255.888C71.8835 255.888 70.227 254.111 70.227 251.927C70.1626 246.719 77.6155 246.424 77.6123 251.927C77.6123 254.111 75.9559 255.888 73.9197 255.888ZM109.767 244.966C107.731 244.966 106.074 243.189 106.074 241.004C106.074 238.82 107.731 237.043 109.767 237.043C112.458 237.043 113.168 239.286 113.423 241.531C113.182 243.467 111.637 244.966 109.767 244.966ZM137.5 283.357C135.464 283.357 133.807 281.58 133.807 279.395C133.981 274.152 141.02 274.153 141.193 279.395C141.193 281.58 139.536 283.357 137.5 283.357ZM165.233 237.043C167.269 237.043 168.926 238.82 168.926 241.004C168.811 245.928 162.281 246.363 161.577 241.531C161.62 241.18 161.62 240.829 161.577 240.478C161.818 238.542 163.363 237.043 165.233 237.043ZM201.08 255.888C199.044 255.888 197.388 254.111 197.388 251.927C197.561 246.684 204.601 246.685 204.773 251.927C204.773 254.111 203.116 255.888 201.08 255.888ZM263.251 211.015C265.287 211.015 266.943 212.792 266.943 214.977C266.845 219.767 260.549 220.373 259.627 215.731C259.712 215.243 259.712 214.71 259.627 214.222C259.957 212.397 261.455 211.015 263.251 211.015ZM236.395 177.602C238.431 177.602 240.088 179.379 240.088 181.564C239.914 186.807 232.875 186.806 232.703 181.564C232.703 179.379 234.359 177.602 236.395 177.602Z" fill="url(#paint0_linear_734_70)"/>
<defs>
<linearGradient id="paint0_linear_734_70" x1="0.240235" y1="146" x2="274.76" y2="146" gradientUnits="userSpaceOnUse">
<stop stop-color="#FF4A4A" stop-opacity="0.84"/>
<stop offset="0.514966" stop-color="#867FF4"/>
<stop offset="1" stop-color="#7B5AFF" stop-opacity="0.84"/>
</linearGradient>
</defs>
</svg>
