<svg width="30" height="35" viewBox="0 0 30 35" fill="none" xmlns="http://www.w3.org/2000/svg">
<path d="M19.3027 2.77988C18.5904 1.08946 16.9187 -0.00154589 15.0449 1.64416e-06C13.1712 0.00154918 11.5011 1.09565 10.7913 2.78711C10.7792 2.81651 10.767 2.84591 10.7554 2.87583L0.260788 29.7528C-0.518744 31.7497 0.508294 33.9848 2.55549 34.7452C4.60269 35.5066 6.89421 34.5032 7.67375 32.5069L9.31426 28.3049H20.7L22.3214 32.4961C22.9212 34.0452 24.43 35 26.0335 35C26.4983 35 26.9722 34.9195 27.4328 34.7498C29.4821 33.9957 30.5171 31.7631 29.7434 29.7642L19.344 2.88615C19.3318 2.85004 19.3175 2.81496 19.3027 2.77988ZM12.3367 20.5667L15.0344 13.6575L17.7077 20.5667H12.3367Z" fill="url(#paint0_linear_734_71)"/>
<defs>
<linearGradient id="paint0_linear_734_71" x1="15" y1="0" x2="15" y2="35" gradientUnits="userSpaceOnUse">
<stop stop-color="white"/>
<stop offset="1" stop-color="#8DC5E0"/>
</linearGradient>
</defs>
</svg>
