<svg width="50" height="44" viewBox="0 0 50 44" fill="none" xmlns="http://www.w3.org/2000/svg">
<g filter="url(#filter0_i_499_54)">
<rect x="1" y="1" width="48" height="42" rx="7" fill="#D4E4FE"/>
<path d="M32.9999 22.79C32.8426 24.4922 32.2038 26.1144 31.1581 27.4668C30.1125 28.8192 28.7034 29.8458 27.0956 30.4265C25.4878 31.0073 23.7479 31.1181 22.0794 30.7461C20.4109 30.3741 18.8829 29.5345 17.6741 28.3258C16.4654 27.117 15.6258 25.589 15.2538 23.9205C14.8818 22.252 14.9926 20.5121 15.5734 18.9043C16.1541 17.2965 17.1807 15.8874 18.5331 14.8418C19.8855 13.7961 21.5077 13.1573 23.2099 13C22.2133 14.3483 21.7338 16.0094 21.8584 17.6814C21.9831 19.3534 22.7038 20.9251 23.8893 22.1106C25.0748 23.2961 26.6465 24.0168 28.3185 24.1415C29.9905 24.2662 31.6516 23.7866 32.9999 22.79Z" fill="black" fill-opacity="0.72" stroke="black" stroke-opacity="0.72" stroke-linecap="round" stroke-linejoin="round"/>
<rect x="0.5" y="0.5" width="49" height="43" rx="7.5" stroke="#E3D8E8"/>
</g>
<defs>
<filter id="filter0_i_499_54" x="0" y="0" width="51" height="45" filterUnits="userSpaceOnUse" color-interpolation-filters="sRGB">
<feFlood flood-opacity="0" result="BackgroundImageFix"/>
<feBlend mode="normal" in="SourceGraphic" in2="BackgroundImageFix" result="shape"/>
<feColorMatrix in="SourceAlpha" type="matrix" values="0 0 0 0 0 0 0 0 0 0 0 0 0 0 0 0 0 0 127 0" result="hardAlpha"/>
<feOffset dx="1" dy="1"/>
<feGaussianBlur stdDeviation="2"/>
<feComposite in2="hardAlpha" operator="arithmetic" k2="-1" k3="1"/>
<feColorMatrix type="matrix" values="0 0 0 0 0 0 0 0 0 0 0 0 0 0 0 0 0 0 0.25 0"/>
<feBlend mode="normal" in2="shape" result="effect1_innerShadow_499_54"/>
</filter>
</defs>
</svg>
