<svg width="72" height="69" viewBox="0 0 72 69" fill="none" xmlns="http://www.w3.org/2000/svg">
<path d="M52.7031 66.3459C52.4949 65.5894 51.0697 60.9348 47.0179 57.4639C40.8485 60.7618 33.2598 61.6524 26.0478 59.5017C11.6871 55.2191 3.46412 40.1309 7.71763 25.8675C11.9712 11.6041 27.1151 3.48416 41.4758 7.7667C55.8074 12.0406 64.2878 27.1642 60.023 41.4656C59.4526 43.3783 58.6754 45.2118 57.7051 46.9361C57.6664 47.005 57.4217 47.5521 57.2028 47.908C59.2227 56.6012 56.1399 66.3166 56.0934 66.4775C56.0471 67.2234 55.4037 67.8778 54.5312 67.9095C53.5573 67.9447 52.7637 67.2089 52.7031 66.3459ZM53.8441 48.2213C53.5905 47.7402 53.5923 47.1603 53.9025 46.6853C55.1467 44.7799 56.1108 42.6972 56.7676 40.4948C60.5226 27.9029 53.2573 14.581 40.5719 10.7981C28.0063 7.05086 14.7283 14.2465 10.9733 26.8383C7.21821 39.4302 14.3862 52.7231 26.9519 56.4703C33.4666 58.4131 40.4779 57.5705 46.1878 54.1584C46.7835 53.8026 47.5678 53.8493 48.1432 54.2754C51.0115 56.3987 52.8995 59.056 54.0477 61.1078C54.6959 57.9735 55.1128 53.4808 53.8441 48.2213Z" fill="white"/>
<g clip-path="url(#clip0_1168_126)">
<rect width="43.8861" height="44.3778" rx="21.9431" transform="matrix(0.996378 -0.0850296 0.0834672 0.996511 10.5215 13.3926)" fill="url(#paint0_linear_1168_126)" fill-opacity="0.28"/>
<rect width="43.8861" height="44.3778" rx="21.9431" transform="matrix(0.996378 -0.0850296 0.0834672 0.996511 19 22.7319)" fill="url(#paint1_linear_1168_126)" fill-opacity="0.28"/>
</g>
<defs>
<linearGradient id="paint0_linear_1168_126" x1="34.0414" y1="23.3493" x2="310.096" y2="-45.2741" gradientUnits="userSpaceOnUse">
<stop stop-color="#180D0D"/>
<stop offset="1" stop-color="#180D0D" stop-opacity="0"/>
</linearGradient>
<linearGradient id="paint1_linear_1168_126" x1="7.16461" y1="33.9625" x2="218.15" y2="-56.262" gradientUnits="userSpaceOnUse">
<stop offset="0.0930459" stop-color="#180D0D"/>
<stop offset="1" stop-color="#180D0D" stop-opacity="0"/>
</linearGradient>
<clipPath id="clip0_1168_126">
<rect width="43.8861" height="44.3778" rx="21.9431" transform="matrix(0.996378 -0.0850296 0.0834672 0.996511 10.5215 13.3926)" fill="white"/>
</clipPath>
</defs>
</svg>
