<svg width="78" height="78" viewBox="0 0 78 78" fill="none" xmlns="http://www.w3.org/2000/svg">
<path d="M74.3411 48.0865C73.6429 47.7285 69.2496 45.632 63.9528 46.2712C62.2123 53.0468 57.7383 59.2408 51.278 63.1012C38.4141 70.7882 21.7369 66.6474 14.1021 53.8706C6.46726 41.0939 10.7216 24.4453 23.5855 16.7584C36.4234 9.08705 53.3007 13.062 60.9558 25.8728C61.9796 27.5862 62.8053 29.3984 63.42 31.279C63.4446 31.3541 63.6823 31.9044 63.7965 32.3062C71.5679 36.6947 76.6428 45.5342 76.73 45.6772C77.2484 46.2156 77.2956 47.132 76.7291 47.7964C76.0967 48.5379 75.018 48.6252 74.3411 48.0865ZM61.7569 34.993C61.2309 34.8546 60.8048 34.4613 60.6645 33.9115C60.1016 31.7066 59.2186 29.5882 58.0397 27.6154C51.2996 16.3359 36.5714 12.6836 25.2082 19.4738C13.9523 26.1998 10.2783 40.8485 17.0184 52.128C23.7585 63.4074 38.3995 67.1119 49.6555 60.3858C55.4912 56.8986 59.6101 51.1625 60.956 44.6484C61.0964 43.9688 61.6611 43.4225 62.364 43.2866C65.8677 42.6084 69.1021 43.0136 71.3903 43.5546C69.5189 40.958 66.4902 37.6136 61.7569 34.993Z" fill="white"/>
<g clip-path="url(#clip0_1168_124)">
<rect width="43.8861" height="44.3778" rx="21.9431" transform="matrix(0.996378 -0.0850296 0.0834672 0.996511 15.7734 17.873)" fill="url(#paint0_linear_1168_124)" fill-opacity="0.28"/>
<rect width="43.8861" height="44.3778" rx="21.9431" transform="matrix(0.996378 -0.0850296 0.0834672 0.996511 23 26.7314)" fill="url(#paint1_linear_1168_124)" fill-opacity="0.28"/>
</g>
<defs>
<linearGradient id="paint0_linear_1168_124" x1="6.71279" y1="38.7557" x2="372.202" y2="-108.709" gradientUnits="userSpaceOnUse">
<stop stop-color="#180D0D"/>
<stop offset="1" stop-color="#180D0D" stop-opacity="0"/>
</linearGradient>
<linearGradient id="paint1_linear_1168_124" x1="7.16461" y1="33.9625" x2="218.15" y2="-56.262" gradientUnits="userSpaceOnUse">
<stop offset="0.0930459" stop-color="#180D0D"/>
<stop offset="1" stop-color="#180D0D" stop-opacity="0"/>
</linearGradient>
<clipPath id="clip0_1168_124">
<rect width="43.8861" height="44.3778" rx="21.9431" transform="matrix(0.996378 -0.0850296 0.0834672 0.996511 15.7734 17.873)" fill="white"/>
</clipPath>
</defs>
</svg>
