<svg width="65" height="69" viewBox="0 0 65 69" fill="none" xmlns="http://www.w3.org/2000/svg">
<path d="M63.1949 14.3217C62.4572 14.589 57.9297 16.3773 54.7897 20.6906C58.5645 26.5803 60.0517 34.075 58.4773 41.4343C55.3424 56.0884 40.9507 65.4774 26.3959 62.3637C11.8412 59.25 2.5505 44.7946 5.68544 30.1406C8.81403 15.5162 23.2206 5.86778 37.8142 8.98978C39.7659 9.40731 41.6551 10.0372 43.4506 10.8683C43.5224 10.9015 44.0872 11.1022 44.4592 11.2923C52.9658 8.59212 62.8942 10.898 63.0583 10.9316C63.8056 10.9188 64.5087 11.5085 64.6092 12.3758C64.7213 13.3439 64.0504 14.1931 63.1949 14.3217ZM45.0368 14.6158C44.5772 14.9066 43.999 14.9506 43.501 14.6789C41.5033 13.589 39.3509 12.7925 37.1035 12.3117C24.2544 9.56289 11.5479 17.8577 8.77874 30.8022C6.03567 43.6245 14.2575 56.2927 27.1066 59.0415C39.9558 61.7903 52.641 53.5949 55.3841 40.7725C56.8062 34.1246 55.4125 27.2018 51.5601 21.7792C51.1583 21.2135 51.143 20.4279 51.5223 19.8207C53.4124 16.7937 55.9123 14.7017 57.867 13.3951C54.6913 12.9964 50.1796 12.9356 45.0368 14.6158Z" fill="white"/>
<g clip-path="url(#clip0_1168_123)">
<rect width="43.8861" height="44.3778" rx="21.9431" transform="matrix(0.996378 -0.0850296 0.0834672 0.996511 8.8457 15.7773)" fill="url(#paint0_linear_1168_123)" fill-opacity="0.28"/>
<rect width="43.8861" height="44.3778" rx="21.9431" transform="matrix(0.996378 -0.0850296 0.0834672 0.996511 18 24.7314)" fill="url(#paint1_linear_1168_123)" fill-opacity="0.28"/>
</g>
<defs>
<linearGradient id="paint0_linear_1168_123" x1="8.20195" y1="29.0873" x2="430.191" y2="-223.004" gradientUnits="userSpaceOnUse">
<stop stop-color="#150B0B"/>
<stop offset="1" stop-color="#180D0D" stop-opacity="0"/>
</linearGradient>
<linearGradient id="paint1_linear_1168_123" x1="7.16461" y1="33.9625" x2="218.15" y2="-56.262" gradientUnits="userSpaceOnUse">
<stop offset="0.0930459" stop-color="#180D0D"/>
<stop offset="1" stop-color="#180D0D" stop-opacity="0"/>
</linearGradient>
<clipPath id="clip0_1168_123">
<rect width="43.8861" height="44.3778" rx="21.9431" transform="matrix(0.996378 -0.0850296 0.0834672 0.996511 8.8457 15.7773)" fill="white"/>
</clipPath>
</defs>
</svg>
